<?xml version="1.0" standalone="no"?>
<!DOCTYPE svg PUBLIC "-//W3C//DTD SVG 20010904//EN"
 "http://www.w3.org/TR/2001/REC-SVG-20010904/DTD/svg10.dtd">
<svg version="1.0" xmlns="http://www.w3.org/2000/svg"
 width="886.000000pt" height="331.000000pt" viewBox="0 0 886.000000 331.000000"
 preserveAspectRatio="xMidYMid meet">

<g transform="translate(0.000000,331.000000) scale(0.100000,-0.100000)"
fill="#5956E9" stroke="none">
<path d="M2822 1618 l3 -1583 73 -3 72 -3 0 1586 0 1585 -75 0 -75 0 2 -1582z"/>
<path d="M70 1615 l0 -1135 1145 0 1145 0 0 1135 0 1135 -1145 0 -1145 0 0
-1135z m2030 14 l0 -871 -327 320 c-181 177 -578 568 -883 871 l-555 550 883
0 882 1 0 -871z"/>
<path d="M5310 2279 c-113 -23 -183 -123 -202 -290 l-11 -96 -69 5 -68 5 0
-79 0 -80 72 4 71 4 -6 -296 -6 -297 106 3 106 3 -3 235 c-2 129 -4 260 -4
290 l-1 55 95 1 95 1 3 77 3 78 -98 -3 -98 -4 4 73 c6 148 24 172 126 172 l71
0 12 62 c6 34 8 66 4 69 -12 12 -155 18 -202 8z"/>
<path d="M8048 2271 c-58 -3 -109 -9 -112 -12 -3 -3 -1 -50 4 -105 5 -54 10
-300 10 -546 l0 -448 107 0 106 0 -6 180 c-4 123 -3 181 4 186 23 14 213 -217
272 -331 l19 -35 118 0 c66 0 121 4 125 9 13 21 -189 295 -291 394 l-54 54 42
28 c57 38 248 230 248 249 0 14 -18 16 -118 16 -115 0 -119 -1 -129 -23 -26
-56 -207 -257 -232 -257 -12 0 -13 46 -7 325 4 179 6 324 4 323 -2 -1 -51 -4
-110 -7z"/>
<path d="M3588 2190 c-126 -22 -209 -69 -255 -147 -24 -42 -28 -58 -28 -128 0
-59 5 -90 20 -120 29 -59 97 -120 178 -159 40 -19 116 -55 169 -80 96 -45 128
-74 141 -124 9 -36 -12 -81 -45 -98 -72 -38 -277 -37 -403 0 -51 16 -44 24
-70 -88 -8 -38 -14 -71 -11 -73 13 -14 179 -32 286 -32 238 -1 378 56 435 175
26 54 31 149 12 215 -32 106 -105 166 -313 254 -73 31 -144 67 -158 80 -53 49
-43 110 24 149 29 17 52 20 140 20 65 0 129 -7 168 -17 35 -9 65 -17 66 -17 8
0 27 163 20 170 -23 23 -278 36 -376 20z"/>
<path d="M6645 2123 c-16 -2 -45 -6 -62 -9 l-33 -5 0 -109 0 -110 -60 7 -60 6
0 -79 0 -79 54 3 54 4 4 -214 c3 -177 7 -220 21 -253 39 -88 104 -126 222
-133 44 -2 99 1 121 7 39 11 42 13 48 57 13 95 15 92 -61 87 -83 -5 -111 8
-138 62 -17 35 -19 62 -20 210 l0 170 100 1 100 1 3 78 3 78 -102 -5 -102 -5
6 118 6 119 -37 -1 c-20 -1 -50 -4 -67 -6z"/>
<path d="M5875 1927 c-76 -20 -125 -50 -178 -106 -90 -96 -131 -233 -108 -358
15 -84 41 -134 102 -199 87 -91 226 -133 400 -119 79 6 194 27 204 37 2 2 8
37 13 77 l9 73 -31 -6 c-166 -34 -295 -33 -362 2 -22 11 -55 36 -71 56 -30 34
-60 102 -50 113 3 3 122 8 264 11 l258 7 3 74 c6 157 -65 283 -183 325 -65 23
-205 29 -270 13z m185 -145 c42 -21 68 -63 72 -117 l3 -40 -167 -3 c-192 -3
-188 -6 -143 84 31 63 80 93 150 94 28 0 65 -8 85 -18z"/>
<path d="M7345 1927 c-75 -20 -125 -50 -177 -105 -118 -126 -150 -307 -79
-457 79 -168 256 -245 504 -217 56 6 118 16 138 22 34 9 37 14 43 56 6 47 8
104 4 104 -2 0 -39 -7 -83 -15 -165 -30 -277 -16 -345 42 -39 34 -80 98 -80
126 0 17 125 27 356 27 184 0 174 -5 174 89 0 115 -49 231 -119 281 -16 11
-49 27 -73 36 -59 21 -201 27 -263 11z m185 -145 c39 -19 67 -67 72 -122 l3
-35 -167 -3 -168 -2 0 22 c1 43 45 112 86 135 48 28 125 30 174 5z"/>
<path d="M4335 1924 c-140 -28 -129 -18 -140 -115 l-6 -56 68 13 c84 16 256
17 303 1 40 -14 70 -62 70 -113 l0 -30 -107 -12 c-60 -6 -137 -20 -173 -31
-119 -37 -192 -124 -194 -231 -1 -75 27 -126 89 -165 46 -29 54 -30 160 -30
104 0 115 2 174 31 48 24 64 28 67 18 2 -8 6 -21 9 -29 3 -12 22 -15 87 -15
46 0 89 4 96 8 9 6 10 21 2 62 -5 29 -10 153 -10 275 0 263 -8 305 -71 358
-58 51 -130 67 -280 66 -68 -1 -133 -3 -144 -5z m295 -508 l0 -94 -38 -15
c-91 -36 -195 -29 -227 16 -34 49 -8 119 57 153 36 19 98 31 161 33 l47 1 0
-94z"/>
</g>
</svg>
