<?xml version="1.0" standalone="no"?>
<!DOCTYPE svg PUBLIC "-//W3C//DTD SVG 20010904//EN"
 "http://www.w3.org/TR/2001/REC-SVG-20010904/DTD/svg10.dtd">
<svg version="1.0" xmlns="http://www.w3.org/2000/svg"
 width="1080.000000pt" height="1080.000000pt" viewBox="0 0 1080.000000 1080.000000"
 preserveAspectRatio="xMidYMid meet">

<g transform="translate(0.000000,1080.000000) scale(0.100000,-0.100000)"
fill="blue" stroke="none">
<path d="M4970 8405 l0 -885 40 0 40 0 0 885 0 885 -40 0 -40 0 0 -885z"/>
<path d="M3422 8408 l3 -633 643 -3 642 -2 0 635 0 635 -645 0 -645 0 2 -632z
m1138 6 l0 -486 -387 380 c-214 209 -435 428 -493 486 l-105 106 493 0 492 0
0 -486z"/>
<path d="M6322 8760 c-37 -23 -68 -84 -77 -152 -6 -46 -7 -48 -39 -48 -26 0
-35 -5 -40 -22 -13 -50 -8 -58 34 -58 l40 0 0 -165 0 -165 59 0 59 0 -6 165
-5 165 57 0 56 0 0 40 0 40 -55 0 -55 0 0 35 c0 20 7 51 14 70 14 33 18 35 59
35 43 0 45 1 50 33 2 17 3 35 0 40 -9 16 -118 7 -151 -13z"/>
<path d="M7833 8703 c4 -38 7 -177 7 -310 l0 -243 61 0 60 0 -7 106 c-7 105
-7 106 14 95 20 -10 118 -134 141 -178 10 -21 19 -23 82 -23 l70 0 -22 40
c-28 49 -141 190 -163 202 -12 7 -3 19 46 61 33 29 72 67 86 85 l25 32 -69 -1
-69 0 -54 -70 c-30 -39 -64 -75 -74 -81 -20 -10 -20 -7 -14 171 l6 181 -66 0
-66 0 6 -67z"/>
<path d="M5346 8716 c-81 -30 -124 -102 -106 -180 12 -55 54 -93 150 -138 102
-48 130 -71 130 -110 0 -44 -52 -62 -150 -54 -41 3 -87 8 -101 12 -23 5 -26 2
-36 -41 -14 -60 -13 -60 147 -60 146 0 204 19 240 77 21 35 27 109 11 150 -16
42 -73 87 -150 119 -91 38 -118 55 -126 78 -16 51 35 76 138 68 39 -2 79 -8
88 -11 13 -6 17 2 23 40 3 26 3 50 0 53 -13 13 -220 11 -258 -3z"/>
<path d="M7067 8683 c-3 -5 -8 -34 -12 -65 -7 -56 -9 -58 -36 -58 -27 0 -29
-3 -29 -40 0 -38 2 -40 30 -40 l30 0 0 -104 c0 -127 6 -159 35 -190 30 -33 98
-50 150 -39 37 7 40 11 43 45 l3 37 -48 3 c-63 4 -73 23 -73 151 l0 97 55 0
55 0 0 40 0 40 -56 0 -56 0 4 65 4 65 -47 0 c-26 0 -50 -3 -52 -7z"/>
<path d="M6667 8577 c-94 -30 -151 -112 -151 -217 0 -148 106 -230 285 -217
101 7 119 17 119 67 l0 39 -32 -10 c-18 -5 -62 -9 -98 -9 -77 0 -118 21 -143
71 l-16 34 72 6 c40 4 107 7 150 8 l77 1 0 52 c0 70 -29 128 -78 156 -48 27
-134 36 -185 19z m128 -92 c14 -13 25 -36 25 -50 l0 -25 -94 0 -95 0 11 30
c23 68 106 93 153 45z"/>
<path d="M7505 8581 c-106 -28 -166 -108 -166 -222 -1 -164 147 -252 351 -208
l50 11 0 43 0 43 -37 -10 c-20 -5 -68 -8 -106 -6 -65 4 -71 6 -103 41 -52 57
-47 63 58 71 50 3 115 6 145 6 l53 0 0 55 c0 69 -27 125 -73 154 -37 23 -126
34 -172 22z m108 -93 c14 -13 28 -35 31 -50 l6 -28 -95 0 c-90 0 -95 1 -95 21
0 11 13 34 29 50 37 37 88 39 124 7z"/>
<path d="M5775 8573 c-28 -7 -32 -13 -39 -54 l-6 -36 42 8 c103 20 191 5 202
-34 11 -40 7 -45 -46 -51 -91 -11 -139 -28 -173 -60 -81 -77 -39 -190 76 -203
39 -4 76 4 142 32 12 5 17 3 17 -9 0 -13 11 -16 53 -16 l53 0 -4 168 c-4 178
-10 202 -55 236 -24 18 -44 21 -135 23 -59 1 -116 -1 -127 -4z m205 -278 c0
-50 -2 -56 -26 -65 -73 -28 -143 2 -130 54 7 29 34 46 86 57 71 14 70 14 70
-46z"/>
</g>
</svg>
